<svg width="500" height="300" viewBox="0 0 500 300" fill="none" xmlns="http://www.w3.org/2000/svg">
<path d="M95.9595 157.181C99.9295 157.181 103.15 153.961 103.15 149.991C103.15 146.021 99.9295 142.801 95.9595 142.801C91.9895 142.801 88.7695 146.021 88.7695 149.991C88.7695 153.961 91.9895 157.181 95.9595 157.181Z" fill="#9D9DA3"/>
<path d="M45.7603 157.181C49.7303 157.181 52.9503 153.961 52.9503 149.991C52.9503 146.021 49.7303 142.801 45.7603 142.801C41.7903 142.801 38.5703 146.021 38.5703 149.991C38.5703 153.961 41.7903 157.181 45.7603 157.181Z" fill="#E63529"/>
<path d="M70.8599 157.181C74.8299 157.181 78.0499 153.961 78.0499 149.991C78.0499 146.021 74.8299 142.801 70.8599 142.801C66.8899 142.801 63.6699 146.021 63.6699 149.991C63.6699 153.961 66.8899 157.181 70.8599 157.181Z" fill="#9D9DA3"/>
<path d="M95.9595 106.98C99.9295 106.98 103.15 103.76 103.15 99.7896C103.15 95.8196 99.9295 92.5996 95.9595 92.5996C91.9895 92.5996 88.7695 95.8196 88.7695 99.7896C88.7695 103.76 91.9895 106.98 95.9595 106.98Z" fill="#E63529"/>
<path d="M45.7603 106.98C49.7303 106.98 52.9503 103.76 52.9503 99.7896C52.9503 95.8196 49.7303 92.5996 45.7603 92.5996C41.7903 92.5996 38.5703 95.8196 38.5703 99.7896C38.5703 103.76 41.7903 106.98 45.7603 106.98Z" fill="#E63529"/>
<path d="M70.8599 106.98C74.8299 106.98 78.0499 103.76 78.0499 99.7896C78.0499 95.8196 74.8299 92.5996 70.8599 92.5996C66.8899 92.5996 63.6699 95.8196 63.6699 99.7896C63.6699 103.76 66.8899 106.98 70.8599 106.98Z" fill="#E63529"/>
<path d="M95.9595 132.079C99.9295 132.079 103.15 128.859 103.15 124.889C103.15 120.919 99.9295 117.699 95.9595 117.699C91.9895 117.699 88.7695 120.919 88.7695 124.889C88.7695 128.859 91.9895 132.079 95.9595 132.079Z" fill="#9D9DA3"/>
<path d="M45.7603 132.079C49.7303 132.079 52.9503 128.859 52.9503 124.889C52.9503 120.919 49.7303 117.699 45.7603 117.699C41.7903 117.699 38.5703 120.919 38.5703 124.889C38.5703 128.859 41.7903 132.079 45.7603 132.079Z" fill="#E63529"/>
<path d="M70.8599 132.079C74.8299 132.079 78.0499 128.859 78.0499 124.889C78.0499 120.919 74.8299 117.699 70.8599 117.699C66.8899 117.699 63.6699 120.919 63.6699 124.889C63.6699 128.859 66.8899 132.079 70.8599 132.079Z" fill="#E63529"/>
<path d="M218.909 109.56C214.859 106.26 209.649 104.34 203.789 104.34C189.739 104.34 178.449 116.05 178.449 131.28C178.449 138.31 181.009 144.7 185.049 149.38C189.629 154.7 196.869 158.11 204.529 158.11C209.749 158.11 214.639 156.51 218.899 152.89V157.04H232.209V105.4H218.899V109.55L218.909 109.56ZM218.369 138.95C215.709 142.78 211.129 145.34 205.909 145.34C198.139 145.34 192.279 139.38 192.279 131.29C192.279 123.84 197.499 117.13 205.589 117.13C210.909 117.13 215.489 119.69 218.369 123.52V138.96V138.95Z" fill="#E63529"/>
<path d="M128.02 157.05H142.39V133.11H168.37V120.33H142.39V105.2H175.82V92.4297H128.02V157.05Z" fill="#E63529"/>
<path d="M281.841 109.56C277.791 106.26 272.581 104.34 266.721 104.34C252.671 104.34 241.381 116.05 241.381 131.28C241.381 138.31 243.831 144.7 247.871 149.38C252.451 154.7 259.791 158.11 267.461 158.11C272.681 158.11 277.151 156.62 281.301 153.43V155.13C281.301 161.73 280.231 164.92 278.111 167.27C275.771 170.04 272.041 171.42 267.571 171.42C265.811 171.42 264.221 171.22 262.761 170.89V183.3C264.341 183.53 265.941 183.66 267.571 183.66C277.471 183.66 285.781 179.83 290.461 173.33C293.551 168.96 295.151 163.43 295.151 154.17V105.41H281.841V109.56ZM281.311 138.95C278.651 142.78 274.071 145.34 268.851 145.34C261.081 145.34 255.221 139.38 255.221 131.29C255.221 123.84 260.441 117.13 268.531 117.13C273.851 117.13 278.431 119.69 281.311 123.52V138.96V138.95Z" fill="#E63529"/>
<path d="M456.11 112.65C451.85 107.54 445.36 104.35 438.22 104.35C432.47 104.35 427.58 106.37 423.64 109.57V105.42H410.33V157.06H424.17V123.52C426.09 120.86 430.88 117.13 436.73 117.13C439.92 117.13 442.69 118.19 444.5 120.01C446.42 121.93 447.59 124.59 447.59 129.7V157.06H461.43V130.76C461.43 121.92 459.51 116.71 456.11 112.66" fill="#E63529"/>
<path d="M372.941 104.35C357.291 104.35 345.471 116.38 345.471 131.29C345.471 146.2 357.291 158.12 372.941 158.12C388.591 158.12 400.411 146.2 400.411 131.29C400.411 116.38 388.591 104.35 372.941 104.35ZM372.941 145.33C364.851 145.33 359.311 139.05 359.311 131.28C359.311 123.51 364.851 117.12 372.941 117.12C381.031 117.12 386.571 123.51 386.571 131.28C386.571 139.05 381.041 145.33 372.941 145.33Z" fill="#E63529"/>
<path d="M320.429 110.63V105.41H307.119V157.05H320.959V124.58C322.669 121.49 327.459 117.13 333.519 117.13C335.539 117.13 339.159 117.34 340.119 117.66V104.78C338.629 104.57 337.459 104.35 335.439 104.35C329.159 104.35 323.519 106.8 320.429 110.63Z" fill="#E63529"/>
<path d="M341.56 172.211C340.13 172.211 339.08 172.801 338.48 173.431V172.441H336.11V183.441H338.55V176.241C339.15 175.241 340.28 174.541 341.31 174.541C341.66 174.541 341.89 174.561 342.12 174.631L342.27 174.671L342.55 172.311L342.42 172.291C342.17 172.241 341.79 172.221 341.55 172.221M351.69 197.141C350.79 196.471 349.71 196.121 348.54 196.121C347.55 196.121 346.62 196.361 345.85 196.821C344.08 197.871 343.02 199.751 343.02 201.841C343.02 203.931 344.07 205.801 345.83 206.841C346.6 207.301 347.63 207.571 348.59 207.571C349.78 207.571 350.89 207.201 351.76 206.521V207.351H354.13V190.871H351.69V197.141ZM351.69 203.811C351 204.711 349.96 205.251 348.88 205.251C346.96 205.251 345.46 203.761 345.46 201.851C345.46 199.941 346.88 198.451 348.77 198.451C349.9 198.451 350.99 198.991 351.69 199.891V203.811ZM360.1 191.101C359.23 191.101 358.55 191.791 358.55 192.671C358.55 193.551 359.23 194.221 360.1 194.221C360.97 194.221 361.67 193.541 361.67 192.671C361.67 191.801 360.96 191.101 360.1 191.101ZM358.89 207.351H361.33V196.351H358.89V207.351ZM334.48 196.121C331.37 196.121 329.12 198.531 329.12 201.851C329.12 205.171 331.56 207.581 334.8 207.581C337.53 207.581 338.94 206.141 339.43 205.521L339.5 205.421L337.9 203.891L337.81 203.991C337.18 204.691 336.33 205.401 334.83 205.401C333.12 205.401 331.69 204.111 331.51 202.431H339.75V202.311C339.79 202.101 339.79 201.931 339.79 201.841C339.79 198.581 337.52 196.111 334.5 196.111M331.72 200.341C332.12 199.121 333.26 198.281 334.55 198.281C335.74 198.281 336.85 199.151 337.2 200.341H331.72ZM331.74 181.601L331.82 181.501L330.22 179.971L330.13 180.071C329.5 180.771 328.65 181.481 327.15 181.481C325.44 181.481 324.01 180.191 323.83 178.511H332.07V178.391C332.11 178.181 332.11 178.011 332.11 177.921C332.11 174.651 329.83 172.191 326.82 172.191C323.81 172.191 321.46 174.601 321.46 177.921C321.46 181.241 323.9 183.651 327.14 183.651C329.87 183.651 331.28 182.211 331.77 181.591M326.87 174.371C328.06 174.371 329.17 175.241 329.52 176.431H324.04C324.44 175.211 325.58 174.371 326.87 174.371ZM349.62 181.491C348.58 181.491 347.51 181.091 346.53 180.331L346.42 180.241L345.15 182.061L345.25 182.141C346.49 183.141 347.98 183.651 349.67 183.651C351.67 183.651 353.8 182.451 353.8 180.231C353.8 178.011 351.77 177.211 349.79 176.701C348.69 176.421 347.98 176.191 347.98 175.581C347.98 174.751 348.91 174.371 349.78 174.371C350.54 174.371 351.29 174.651 352 175.191L352.11 175.271L353.39 173.501L353.29 173.421C352.29 172.611 351.07 172.201 349.64 172.201C347.66 172.201 345.53 173.291 345.53 175.691C345.53 177.021 346.41 178.021 348.09 178.581C348.47 178.711 348.86 178.811 349.24 178.901C350.42 179.201 351.35 179.441 351.35 180.271C351.35 181.031 350.47 181.481 349.61 181.481M404.98 166.961H402.54V183.441H404.98V166.961ZM320.34 196.121C318.34 196.121 317.15 196.971 316.26 197.841C315.29 196.731 313.95 196.121 312.46 196.121C311.16 196.121 310.03 196.711 309.45 197.201V196.351H307.08V207.351H309.52V199.891C309.92 199.431 310.94 198.451 312.4 198.451C313.17 198.451 313.91 198.781 314.37 199.341C314.78 199.821 314.95 200.441 314.95 201.401V207.361H317.39V201.751C317.39 201.061 317.34 200.451 317.22 199.901C317.89 199.221 318.84 198.461 320.34 198.461C321.08 198.461 321.77 198.781 322.25 199.351C322.66 199.831 322.83 200.451 322.83 201.411V207.371H325.27V201.761C325.27 200.011 324.97 198.881 324.26 198.001C323.32 196.821 321.89 196.151 320.34 196.151M309.52 182.651C310.39 183.321 311.43 183.661 312.62 183.661C313.58 183.661 314.62 183.391 315.38 182.931C317.14 181.891 318.19 180.021 318.19 177.931C318.19 175.841 317.13 173.951 315.36 172.911C314.58 172.451 313.65 172.211 312.67 172.211C311.44 172.211 310.36 172.571 309.45 173.271V172.441H307.08V188.921H309.52V182.661V182.651ZM309.52 175.971C310.22 175.071 311.31 174.531 312.44 174.531C314.33 174.531 315.75 175.991 315.75 177.931C315.75 179.871 314.25 181.331 312.33 181.331C311.26 181.331 310.21 180.791 309.52 179.891V175.971ZM409.74 183.431H412.18V172.431H409.74V183.431ZM424.93 174.021L424.96 173.981V172.431H416.13V174.641H421.53L415.82 181.841L415.79 181.881V183.431H425.42V181.221H419.2L424.93 174.021ZM410.95 167.181C410.08 167.181 409.4 167.871 409.4 168.751C409.4 169.631 410.08 170.301 410.95 170.301C411.82 170.301 412.53 169.621 412.53 168.751C412.53 167.881 411.82 167.181 410.95 167.181ZM428.83 183.431H431.27V172.431H428.83V183.431ZM368.36 177.931C368.36 174.661 365.92 172.201 362.68 172.201C359.44 172.201 357 174.661 357 177.931C357 181.201 359.44 183.661 362.68 183.661C365.92 183.661 368.36 181.201 368.36 177.931ZM362.67 181.341C360.82 181.341 359.43 179.881 359.43 177.941C359.43 176.001 360.82 174.541 362.67 174.541C364.52 174.541 365.91 176.001 365.91 177.941C365.91 179.881 364.52 181.341 362.67 181.341ZM430.04 167.181C429.17 167.181 428.49 167.871 428.49 168.751C428.49 169.631 429.17 170.301 430.04 170.301C430.91 170.301 431.62 169.621 431.62 168.751C431.62 167.881 430.92 167.181 430.04 167.181ZM459.07 172.431V173.261C458.16 172.561 457.07 172.201 455.85 172.201C454.86 172.201 453.93 172.441 453.16 172.901C451.42 173.931 450.33 175.861 450.33 177.921C450.33 179.981 451.38 181.881 453.14 182.921C453.91 183.381 454.94 183.651 455.9 183.651C457.09 183.651 458.13 183.311 459 182.641V182.951C459 184.211 458.82 185.031 458.43 185.641C457.93 186.411 457.07 186.811 455.94 186.811C454.16 186.811 453.21 185.871 452.51 184.951L452.42 184.831L450.63 186.491L450.69 186.591C451.44 187.771 453.29 189.141 456.03 189.141C458.15 189.141 459.88 188.151 460.79 186.421C461.24 185.541 461.44 184.441 461.44 182.841V172.431H459.07ZM459 179.901C458.31 180.801 457.27 181.341 456.19 181.341C454.27 181.341 452.77 179.851 452.77 177.941C452.77 176.031 454.19 174.541 456.08 174.541C457.21 174.541 458.3 175.081 459 175.981V179.901ZM406.38 196.121C403.27 196.121 401.02 198.531 401.02 201.851C401.02 205.171 403.46 207.581 406.7 207.581C409.43 207.581 410.84 206.141 411.33 205.521L411.4 205.421L409.8 203.891L409.71 203.991C409.05 204.721 408.23 205.401 406.73 205.401C405.02 205.401 403.59 204.111 403.41 202.431H411.65V202.311C411.69 202.101 411.69 201.931 411.69 201.841C411.69 198.581 409.41 196.111 406.4 196.111M403.61 200.341C404.01 199.121 405.15 198.281 406.44 198.281C407.63 198.281 408.74 199.151 409.09 200.341H403.6H403.61ZM441.46 172.211C439.95 172.211 438.91 172.861 438.38 173.301V172.441H436.01V183.441H438.45V175.981C438.92 175.421 439.9 174.541 441.4 174.541C442.23 174.541 443.02 174.911 443.51 175.541C443.83 175.931 444.12 176.491 444.12 177.941V183.441H446.56V178.051C446.56 176.281 446.24 175.111 445.48 174.161C444.51 172.921 443.05 172.211 441.47 172.211M379.52 207.351H381.96V196.351H379.52V207.351ZM374.14 203.641C373.34 204.711 372.33 205.251 371.15 205.251C369.13 205.251 367.73 203.851 367.73 201.851C367.73 199.851 369.14 198.451 371.02 198.451C372.52 198.451 373.46 199.431 373.88 200.011L373.97 200.131L375.78 198.611L375.71 198.511C374.63 197.021 372.89 196.131 371.03 196.131C367.77 196.131 365.3 198.591 365.3 201.861C365.3 205.131 367.82 207.591 371.17 207.591C373.17 207.591 375.13 206.551 376.06 205.011L376.12 204.901L374.25 203.541L374.17 203.651L374.14 203.641ZM395.43 173.261C394.52 172.561 393.44 172.201 392.21 172.201C391.22 172.201 390.29 172.441 389.52 172.901C387.75 173.951 386.69 175.831 386.69 177.921C386.69 180.011 387.74 181.881 389.5 182.921C390.27 183.381 391.3 183.651 392.26 183.651C393.45 183.651 394.57 183.281 395.44 182.591V183.421H397.81V172.421H395.44V173.251L395.43 173.261ZM395.36 179.901C394.67 180.801 393.62 181.341 392.55 181.341C390.63 181.341 389.12 179.851 389.12 177.941C389.12 176.031 390.54 174.541 392.43 174.541C393.56 174.541 394.65 175.081 395.35 175.981V179.901H395.36ZM380.73 191.101C379.86 191.101 379.18 191.791 379.18 192.671C379.18 193.551 379.86 194.221 380.73 194.221C381.6 194.221 382.31 193.541 382.31 192.671C382.31 191.801 381.6 191.101 380.73 191.101ZM377.82 172.211C376.31 172.211 375.27 172.861 374.74 173.301V172.441H372.37V183.441H374.81V175.981C375.37 175.311 376.33 174.541 377.76 174.541C378.59 174.541 379.38 174.911 379.87 175.541C380.19 175.931 380.48 176.491 380.48 177.941V183.441H382.92V178.051C382.92 176.281 382.6 175.111 381.84 174.161C380.87 172.921 379.41 172.211 377.83 172.211M392.15 196.121C390.64 196.121 389.6 196.771 389.07 197.211V196.351H386.7V207.351H389.14V199.891C389.61 199.331 390.59 198.451 392.09 198.451C392.92 198.451 393.71 198.821 394.2 199.451C394.52 199.841 394.81 200.401 394.81 201.851V207.351H397.25V201.961C397.25 200.191 396.93 199.021 396.17 198.061C395.2 196.821 393.74 196.111 392.16 196.111" fill="#9D9DA3"/>
</svg>
