<svg width="500" height="300" viewBox="0 0 500 300" fill="none" xmlns="http://www.w3.org/2000/svg">
<mask id="mask0_3216_39631" style="mask-type:luminance" maskUnits="userSpaceOnUse" x="40" y="82" width="420" height="136">
<path d="M459.951 82.1602H40.0605V217.84H459.951V82.1602Z" fill="white"/>
</mask>
<g mask="url(#mask0_3216_39631)">
<mask id="mask1_3216_39631" style="mask-type:luminance" maskUnits="userSpaceOnUse" x="40" y="82" width="420" height="136">
<path d="M459.941 82.1602H40.0605V217.84H459.941V82.1602Z" fill="white"/>
</mask>
<g mask="url(#mask1_3216_39631)">
<path fill-rule="evenodd" clip-rule="evenodd" d="M433.57 185.589L453.48 130.679C453.48 130.679 438.59 130.679 423.72 133.669L404.9 185.589H433.58H433.57ZM430.18 115.849L426.36 126.389C441.33 123.399 456.12 123.399 456.12 123.399L459.94 112.859C459.94 112.859 445.06 112.859 430.17 115.839" fill="black"/>
<path fill-rule="evenodd" clip-rule="evenodd" d="M326.36 172.551C335.31 174.191 344.54 175.041 353.96 175.041C360.17 175.041 370.5 174.311 371.42 166.321C371.79 163.191 368.4 161.051 362.98 158.071C356.79 154.651 352.02 152.831 346.63 149.231C341.25 145.631 338.92 139.961 340.74 133.961C346.18 115.961 372.48 112.871 388.02 112.871C398.7 112.871 409.15 113.901 419.27 115.851L415.63 125.891C406.28 124.191 372.15 118.391 370.57 132.131C370.21 135.261 373.38 137.291 378.8 140.281C384.99 143.701 389.98 145.621 395.37 149.221C400.76 152.821 403.07 158.491 401.26 164.501C395.81 182.491 369.53 185.591 353.98 185.591C343.5 185.591 333.03 184.591 322.73 182.601L326.37 172.561L326.36 172.551Z" fill="black"/>
<path fill-rule="evenodd" clip-rule="evenodd" d="M283.131 185.591L299.741 139.771C306.271 121.761 275.311 128.941 267.951 149.221L254.771 185.591H226.091L242.701 139.771C249.231 121.761 218.261 128.951 210.911 149.221L197.731 185.591H169.051L195.421 112.871C204.551 112.871 209.491 114.971 213.641 119.051C215.161 120.541 216.101 122.471 216.621 124.541C222.001 121.291 226.761 118.841 229.961 117.601C235.921 115.261 243.331 112.871 252.471 112.871C261.601 112.871 266.541 114.971 270.691 119.051C272.211 120.541 273.161 122.471 273.671 124.541C279.051 121.291 283.811 118.841 287.011 117.601C292.971 115.261 300.381 112.871 309.511 112.871C318.641 112.871 323.581 114.971 327.731 119.051C331.881 123.121 331.781 130.561 330.281 134.681L311.821 185.591H283.141H283.131Z" fill="black"/>
<path fill-rule="evenodd" clip-rule="evenodd" d="M41.7 104.38C57.74 94.3601 77.38 85.3302 96.13 82.2502L96.69 82.1602L97.24 82.2502C115.99 85.3302 135.63 94.3601 151.67 104.38L153.3 105.4V107.32C153.45 131.57 149.52 157.45 138.39 179.25C129.68 196.3 116.28 211.07 97.81 217.46L96.69 217.85L95.55 217.46C77.09 211.07 63.68 196.31 54.97 179.25C43.84 157.45 39.92 131.58 40.05 107.32V105.4L41.69 104.38H41.7Z" fill="#858586"/>
<path fill-rule="evenodd" clip-rule="evenodd" d="M43.5502 107.329C60.3402 96.8395 79.5802 88.4995 96.6802 85.6895C113.78 88.4995 133.02 96.8395 149.81 107.329C150.12 163.419 128.46 203.129 96.6802 214.139C64.9002 203.129 43.2402 163.419 43.5502 107.329Z" fill="#E52126"/>
<path fill-rule="evenodd" clip-rule="evenodd" d="M112.201 129.099C105.211 137.189 94.0909 138.349 86.4109 138.689C85.5409 138.779 83.8009 138.889 83.3609 139.509C83.1109 139.919 83.3509 140.469 83.7209 140.769C92.4009 146.899 103.721 142.419 109.671 139.489C102.801 145.649 91.2309 146.739 81.3409 143.119C80.0809 142.689 79.2709 142.559 78.8609 143.009C78.5809 143.309 78.4509 143.889 78.8109 144.579C81.5909 149.749 83.5909 153.749 90.6509 155.989C82.4609 155.509 77.3209 147.719 76.1109 143.569C76.0009 150.539 82.0609 155.329 84.5609 158.099C81.3009 158.219 78.1209 158.469 76.7309 160.919C75.7509 162.459 75.7809 164.699 74.4209 166.739C70.6309 159.659 67.6209 149.759 70.4509 141.109C72.5909 134.589 76.3809 128.459 85.2809 124.639C82.9209 127.349 81.1309 129.409 79.1609 132.399C77.6409 135.239 79.5109 136.249 81.6109 132.599C84.5509 139.699 105.641 135.449 111.181 128.679L113.191 127.839L112.191 129.129L112.201 129.099ZM98.8609 190.519C99.0809 190.179 99.6309 189.959 100.111 190.119C101.011 190.429 101.391 191.419 100.861 192.069C100.211 192.959 99.1309 193.599 98.4209 194.449C98.1009 194.829 97.9509 195.269 97.7709 195.689C97.5609 193.939 97.5609 192.029 98.8609 190.519ZM89.0109 187.439C89.5009 187.039 90.4509 187.019 90.9109 187.459C91.3509 188.019 91.5309 188.759 91.2409 189.389C90.7709 189.979 90.0109 190.369 89.3509 190.819C88.2909 191.499 87.2009 192.259 86.7709 193.309C86.7709 192.019 86.9909 190.709 87.5109 189.479C87.8409 188.729 88.2809 187.999 89.0109 187.439ZM112.441 186.229C112.761 186.069 113.171 186.169 113.441 186.339C113.811 186.569 113.961 186.929 114.031 187.279C114.201 188.109 114.191 188.979 114.531 189.789C114.671 190.129 114.881 190.439 115.051 190.769C114.231 190.489 113.611 189.969 113.061 189.439C112.481 188.839 111.971 188.179 111.831 187.429C111.731 186.989 111.931 186.479 112.441 186.239M81.7509 181.529C82.2909 181.269 83.0009 181.519 83.3509 181.879C83.7909 182.319 83.6009 182.919 83.5609 183.429C83.5409 183.779 83.2109 184.059 82.8409 184.239C81.8309 184.709 80.6809 185.149 79.6909 185.649C79.0209 185.989 78.4709 186.449 78.0809 186.989C78.2009 186.089 78.5709 185.219 78.9809 184.379C79.5209 183.289 80.4409 182.159 81.7509 181.539M123.431 174.609C123.341 174.169 123.761 173.809 124.201 173.599C125.041 173.579 125.701 174.039 126.391 174.349C126.781 174.539 127.241 174.589 127.691 174.629C126.901 175.149 125.901 175.459 124.871 175.469C124.241 175.449 123.521 175.129 123.431 174.599M75.6409 170.859C75.9109 170.689 76.2809 170.809 76.5709 170.879C77.3009 171.079 77.6809 171.699 77.6509 172.269C77.6009 172.889 77.7009 173.659 76.9609 174.069C75.6209 174.849 73.9809 175.279 72.7709 176.199C72.3309 176.499 72.0109 176.889 71.7109 177.279C71.9109 175.529 72.6209 173.819 73.7809 172.309C74.2109 171.699 74.9409 171.269 75.6309 170.849M92.9409 164.079C93.9009 163.699 94.9709 163.489 96.0409 163.419C95.1509 163.729 94.1609 164.049 93.6509 164.739C93.4509 165.029 93.2509 165.459 93.6009 165.739C93.9909 165.939 94.5209 165.879 94.9309 166.049C95.3409 166.299 95.1909 166.759 95.1309 167.109C94.8409 168.219 94.2609 169.279 93.5709 170.279C93.4209 170.509 93.2709 170.769 93.3209 171.039C93.6409 171.079 93.8609 170.839 94.0909 170.709C95.0209 170.059 96.0109 169.429 96.7109 168.609C97.0109 168.229 97.4809 167.889 97.5409 167.419C97.6109 167.039 96.9309 166.929 96.8809 166.589C97.1709 166.019 97.9009 165.679 98.5609 165.399C100.051 164.809 102.231 164.949 103.161 166.149C102.411 165.949 101.711 165.589 100.901 165.529C100.491 165.509 100.021 165.679 99.9409 166.019C99.8409 166.449 99.9009 166.899 99.8009 167.329C99.5109 168.879 98.2809 170.259 96.6309 171.129C96.0609 171.419 95.3509 171.549 94.9309 171.979C94.6309 172.279 94.3609 172.639 94.3909 173.029C94.7509 173.199 95.1809 173.139 95.5809 173.189C96.4709 173.269 97.4209 173.319 98.2409 172.999C99.0209 172.699 99.3309 171.959 100.141 171.689C102.211 170.929 104.871 171.839 105.781 173.439C105.131 173.129 104.581 172.699 103.891 172.439C103.181 172.179 102.291 172.299 101.721 172.709C101.101 173.149 100.691 173.739 100.331 174.329C100.201 174.529 100.041 174.779 99.7209 174.809C99.1709 174.789 98.6709 174.449 98.1109 174.589C97.3409 174.789 96.6509 175.159 95.8709 175.349C95.3409 175.469 94.7709 175.459 94.2309 175.349C93.2909 175.149 92.3409 174.929 91.3709 174.889C90.9309 174.889 90.4009 174.929 90.1209 175.249C89.7409 175.689 89.7909 176.239 89.7309 176.739C89.4309 175.499 88.9709 174.279 88.8909 173.009C88.7909 171.439 88.4109 169.859 88.7309 168.289C89.2609 168.919 89.3009 169.699 89.4209 170.429C89.4809 170.769 89.6709 171.189 90.1609 171.249C90.8309 171.259 91.2209 170.739 91.5609 170.359C92.1209 169.589 92.6209 168.709 92.5209 167.809C92.5309 167.399 91.8809 167.379 91.6409 167.089C91.2009 166.609 91.1909 165.949 91.4209 165.399C91.6609 164.809 92.2709 164.359 92.9609 164.089M128.961 162.029C128.991 161.699 129.451 161.609 129.801 161.629C130.451 161.629 131.091 161.689 131.741 161.609C131.271 162.109 130.611 162.559 129.831 162.719C129.321 162.809 128.861 162.429 128.971 162.029M129.431 154.019C129.911 153.829 130.401 153.649 130.821 153.379C130.651 153.919 130.301 154.479 129.651 154.769C129.141 154.879 128.991 154.149 129.431 154.019ZM106.301 145.739C106.941 148.199 107.831 150.479 110.721 151.389C113.411 152.239 117.291 151.639 120.241 151.369C122.681 151.289 124.951 150.829 126.761 152.099C127.671 152.729 128.051 153.489 128.491 154.359C128.901 155.209 129.321 156.069 129.621 156.949C129.891 157.719 129.731 158.689 129.291 159.389C128.601 160.479 128.161 161.399 128.021 162.609C127.891 163.709 127.671 164.799 127.471 165.889C127.261 166.939 126.971 168.189 126.431 169.179C125.901 170.139 124.941 170.859 124.311 171.769C123.241 173.259 122.651 174.869 122.101 176.519C121.661 177.799 121.491 179.119 121.121 180.409C120.841 181.519 120.171 182.589 118.951 183.239C117.161 184.189 114.911 184.429 113.001 185.169C111.231 185.859 110.041 186.989 108.641 188.049C107.541 188.889 106.601 189.849 105.001 190.079C102.061 190.529 101.311 188.189 96.0009 190.049C95.3609 190.279 94.5509 190.319 93.9809 189.959C92.7109 189.349 92.5709 187.609 91.1509 186.859C89.7409 186.169 88.0209 186.159 86.4409 185.859C85.7409 185.739 85.0509 185.319 84.7809 184.789C84.3309 183.869 84.3209 182.849 83.9209 181.919C82.8909 179.829 79.5109 179.149 78.5509 177.229C77.5709 175.219 78.9009 174.169 78.9009 172.549C78.8009 170.389 77.3409 169.309 74.4809 169.209C76.0709 166.909 76.6109 165.059 77.1809 162.589C77.5409 161.719 77.7609 160.759 78.6909 160.159C79.5009 159.649 80.8109 159.359 81.7909 159.129C82.8509 158.879 84.4009 158.849 85.4109 159.299C88.1109 160.779 87.4909 164.689 86.0709 166.289C84.1309 168.479 79.2609 168.049 80.1009 164.599C81.1009 165.449 82.0709 166.739 83.4709 165.209C83.5709 165.069 83.6809 164.849 83.6309 164.679C83.4309 164.029 83.0209 163.599 82.2409 163.289C81.8609 163.139 81.4009 163.039 80.9909 163.169C79.6009 163.599 78.6609 164.449 78.1109 165.519C77.0209 167.679 79.3809 169.399 82.1109 168.979C84.6509 168.479 85.8209 167.449 87.4709 166.089C87.4109 168.839 87.3409 170.829 87.7009 173.709C88.1309 175.809 88.5409 177.889 89.6309 179.849C90.5109 181.449 91.9809 182.939 94.0009 183.729C96.1209 184.579 98.4509 184.599 100.771 184.589C104.741 184.599 110.541 182.889 113.741 181.229C118.861 178.529 119.591 176.359 122.091 172.119C123.191 170.139 124.241 167.679 125.001 165.599C125.791 163.439 126.401 161.219 126.381 158.959C126.371 157.089 125.861 155.979 125.151 155.089C122.911 152.259 118.141 153.459 113.731 153.329C113.391 154.019 113.121 154.809 113.701 155.469C114.781 156.629 117.401 156.449 119.151 156.589C111.611 159.659 104.861 156.309 102.991 150.389C104.561 152.359 107.101 156.359 110.941 155.169C112.341 154.749 111.701 153.759 111.251 152.989C111.141 152.719 110.651 152.719 110.371 152.619C106.971 151.619 105.701 148.579 106.281 145.739M82.1009 144.469C82.6709 144.909 82.8509 145.509 83.4209 145.949C88.7609 150.009 93.4709 149.989 100.271 150.219C94.2409 151.699 86.5509 150.789 82.2609 146.719C81.6609 146.169 81.2409 145.649 80.8909 144.979C80.5809 144.039 81.4209 143.929 82.1009 144.469ZM107.341 143.349C112.791 143.049 118.371 145.119 120.121 150.409C119.401 149.619 116.431 148.929 115.321 149.199C115.011 149.259 114.731 149.439 114.681 149.699C114.561 150.169 114.841 150.539 115.021 150.969C112.031 151.309 109.861 150.309 108.521 148.389C109.191 148.669 109.861 149.119 110.631 149.249C112.111 149.529 113.561 148.899 114.411 147.979C114.941 147.399 114.601 146.659 113.971 146.219C111.691 144.529 109.751 144.329 107.341 143.359M112.921 133.509C113.631 132.979 114.241 132.379 114.911 131.829C111.861 136.479 104.441 140.149 98.6009 141.189C95.6509 141.779 89.2109 142.539 86.5009 141.059C86.2009 140.899 85.9009 140.549 86.1809 140.279C86.6209 139.949 87.3409 140.019 87.8909 140.009C89.0409 140.119 90.2609 139.979 91.4109 139.979C94.2809 140.039 97.5409 139.569 100.351 139.119C105.011 138.089 109.451 136.229 112.921 133.509ZM57.7609 116.639C58.6109 116.449 59.5309 116.589 60.2809 116.919C61.2209 117.339 61.7609 118.099 62.2309 118.829C62.4509 119.179 62.6909 119.599 62.5209 119.989C62.2609 120.049 61.9809 120.069 61.7209 120.139C61.5009 120.359 61.5709 120.659 61.5709 120.909C61.7409 122.259 62.3009 123.409 62.9109 124.669C62.9909 124.849 63.1609 124.989 63.3309 125.119C63.5609 123.689 63.1909 122.279 63.7809 120.889C63.8809 120.689 64.0009 120.429 64.3109 120.379C64.8109 120.379 65.1909 120.799 65.6909 120.719C66.1109 120.519 66.0509 120.059 66.0109 119.729C65.8809 118.879 65.0309 118.279 64.4809 117.589C65.7209 118.359 66.8909 119.309 67.4009 120.499C67.7109 121.199 67.6209 122.079 66.8909 122.609C66.5709 122.859 66.0909 122.789 65.6909 122.749C64.7909 123.619 64.9209 124.749 65.1409 125.779C65.2109 126.039 65.2709 126.489 65.7309 126.449C66.6709 126.249 67.2809 125.599 68.0709 125.199C66.2509 127.449 64.7009 128.699 63.4909 131.459C63.5109 130.879 63.6309 130.289 63.4709 129.719C63.3709 129.389 63.0209 129.169 62.6809 128.999C61.7809 128.559 60.7409 128.319 59.8209 127.899C58.8609 127.419 58.3609 126.589 57.7709 125.869C57.3909 125.409 56.6609 125.659 56.2009 125.289C55.9909 124.849 56.1009 124.369 55.9909 123.909C55.8509 123.199 55.8109 122.249 55.0309 121.789C54.2309 121.299 53.1709 121.329 52.2109 121.319V121.299C52.9209 121.039 53.6909 120.769 54.4909 120.889C55.8109 121.079 56.7709 121.709 57.4909 122.569C57.9909 123.139 57.8809 123.889 58.3609 124.469C58.7109 124.879 59.2509 125.159 59.7509 125.459C60.3009 125.759 60.8209 126.139 61.5009 126.249C61.6709 125.579 61.5609 124.839 61.0309 124.269C60.1209 123.289 59.8109 122.209 59.6109 121.039C59.4609 120.269 59.6109 119.479 60.0009 118.759C60.1909 118.389 60.5309 117.969 60.2309 117.579C59.6909 116.939 58.6109 116.879 57.7609 116.649M91.5109 103.649C93.9409 105.239 97.1409 107.199 99.8009 108.529C99.2109 108.999 98.5309 109.719 97.7409 109.699C96.0209 109.079 92.3009 105.149 91.5009 103.639M95.0709 98.3093H95.1209C98.7209 102.819 102.551 106.329 107.951 108.879C109.401 109.599 110.771 110.139 112.551 110.199C113.511 110.269 114.411 109.639 115.361 109.629C116.471 109.599 117.581 110.099 118.371 110.639C118.611 110.799 118.791 111.019 118.831 111.269C119.071 112.399 119.401 113.489 120.361 114.359C120.961 114.899 121.941 114.859 122.801 114.699C122.961 115.289 123.301 115.949 124.091 116.159C124.831 116.309 125.451 115.549 126.241 115.759C126.571 116.189 126.761 116.599 127.101 117.029C127.411 117.319 127.931 117.399 128.281 117.649C129.681 118.389 130.571 119.799 131.121 120.909C130.331 120.049 129.421 118.999 128.141 118.569C128.191 120.419 128.071 123.019 126.801 124.009C126.751 122.819 126.801 121.659 126.101 120.599C125.011 121.389 123.911 122.509 122.491 122.769C123.031 122.099 124.121 121.359 123.771 120.529C123.131 120.129 122.351 120.019 121.531 120.219C120.341 120.479 119.201 121.199 118.361 121.909C118.111 121.259 117.941 120.659 117.631 120.079C116.961 120.189 114.551 120.999 115.231 122.069C116.281 123.369 117.961 122.859 118.961 123.049C119.671 123.279 120.141 123.829 120.441 124.349C120.501 123.859 120.541 123.359 120.621 122.879C121.681 124.149 122.621 125.479 123.461 126.859C124.661 126.329 124.911 125.769 125.061 124.219C125.531 124.999 125.601 125.659 125.621 126.519C125.971 126.229 126.181 125.979 126.381 125.509C126.831 127.609 126.331 130.789 123.371 131.739C123.911 130.339 124.121 129.119 122.241 129.119C120.751 129.119 119.081 129.669 117.611 129.839C118.181 129.539 120.721 128.109 120.281 127.269C120.091 126.949 119.731 126.849 119.341 126.699C118.411 126.369 117.561 125.879 116.521 125.749C116.031 125.669 115.601 126.029 115.191 126.199C112.731 125.029 111.871 126.479 110.111 126.739C108.441 126.989 106.581 126.039 105.711 124.689C103.751 121.639 106.681 119.769 109.181 118.989C105.901 118.609 104.571 119.729 103.791 123.009C102.211 122.509 101.451 122.429 99.4909 122.069C88.5809 120.479 79.9409 123.699 74.9309 129.019C70.1009 134.149 67.1009 142.099 67.1509 148.559C67.0109 155.609 69.1709 159.749 72.8209 165.909C67.5309 161.569 65.1809 156.109 63.6109 152.469C62.9409 153.239 63.1609 154.199 62.9709 155.069C59.9109 150.899 64.1609 140.399 66.1809 135.689C64.5809 136.429 63.6109 137.759 62.4609 138.849C62.2709 132.889 67.5309 126.849 72.9109 121.989C71.2509 122.319 70.0009 122.859 68.5109 123.609C73.6609 118.169 83.0909 115.029 91.6009 114.709C89.5909 114.039 87.2009 113.899 85.0909 113.549C91.7409 112.169 96.3009 112.119 100.781 109.139C102.871 110.499 105.311 111.879 106.501 111.509C102.911 108.949 96.3309 102.959 95.0609 98.2793M114.711 112.479C115.061 113.039 115.581 113.509 116.031 114.009C116.551 114.559 117.441 115.029 118.391 114.759C118.251 114.259 118.071 113.769 117.761 113.319C117.641 113.129 117.371 113.029 117.111 112.999C116.291 112.859 115.511 112.629 114.701 112.479" fill="black"/>
<path fill-rule="evenodd" clip-rule="evenodd" d="M111.839 128.189C104.849 136.279 93.7294 137.439 86.0494 137.779C85.1794 137.869 83.4394 137.979 82.9994 138.599C82.7494 138.999 82.9894 139.559 83.3594 139.859C92.0394 145.989 103.359 141.509 109.309 138.579C102.439 144.739 90.8694 145.829 80.9794 142.209C79.7194 141.779 78.9094 141.649 78.4994 142.089C78.2194 142.389 78.0894 142.969 78.4494 143.659C81.2294 148.829 83.2294 152.829 90.2894 155.069C82.0994 154.589 76.9594 146.799 75.7494 142.649C75.6394 149.619 81.6994 154.409 84.1994 157.179C80.9394 157.299 77.7594 157.549 76.3694 159.999C75.3894 161.539 75.4194 163.779 74.0594 165.819C70.2694 158.739 67.2594 148.839 70.0894 140.189C72.2294 133.669 76.0194 127.539 84.9194 123.719C82.5594 126.429 80.7694 128.489 78.7994 131.479C77.2794 134.319 79.1494 135.329 81.2494 131.679C84.1894 138.779 105.289 134.529 110.819 127.759L112.829 126.919L111.829 128.199L111.839 128.189ZM98.4994 189.609C98.7194 189.269 99.2694 189.039 99.7494 189.209C100.649 189.519 101.029 190.509 100.499 191.159C99.8494 192.049 98.7694 192.689 98.0594 193.539C97.7394 193.919 97.5894 194.359 97.4094 194.779C97.1994 193.029 97.1994 191.119 98.4994 189.609ZM88.6494 186.529C89.1394 186.129 90.0894 186.109 90.5494 186.549C90.9894 187.109 91.1694 187.849 90.8794 188.479C90.4094 189.069 89.6494 189.459 88.9894 189.909C87.9294 190.589 86.8394 191.339 86.4094 192.399C86.4094 191.109 86.6294 189.799 87.1494 188.569C87.4794 187.819 87.9294 187.089 88.6494 186.529ZM112.089 185.309C112.409 185.159 112.819 185.249 113.089 185.419C113.459 185.649 113.609 186.009 113.679 186.359C113.849 187.189 113.839 188.059 114.179 188.869C114.319 189.209 114.529 189.519 114.699 189.849C113.879 189.569 113.259 189.049 112.709 188.519C112.129 187.919 111.619 187.259 111.479 186.509C111.379 186.069 111.579 185.559 112.089 185.319M81.3994 180.619C81.9394 180.359 82.6494 180.609 82.9994 180.969C83.4394 181.409 83.2494 182.009 83.2094 182.519C83.1894 182.869 82.8594 183.149 82.4894 183.329C81.4794 183.799 80.3294 184.239 79.3394 184.739C78.6694 185.079 78.1194 185.539 77.7294 186.079C77.8494 185.179 78.2194 184.309 78.6294 183.459C79.1694 182.369 80.0894 181.239 81.3994 180.619ZM123.079 173.699C122.989 173.259 123.409 172.899 123.849 172.689C124.689 172.669 125.349 173.129 126.039 173.439C126.429 173.629 126.889 173.679 127.339 173.719C126.549 174.239 125.549 174.549 124.519 174.559C123.889 174.539 123.169 174.219 123.079 173.689M75.2894 169.949C75.5594 169.779 75.9294 169.899 76.2194 169.959C76.9494 170.159 77.3294 170.779 77.2994 171.349C77.2494 171.969 77.3494 172.739 76.6094 173.149C75.2694 173.929 73.6294 174.359 72.4194 175.289C71.9794 175.589 71.6594 175.979 71.3594 176.369C71.5594 174.619 72.2694 172.899 73.4294 171.399C73.8594 170.789 74.5894 170.359 75.2794 169.939M92.5894 163.169C93.5494 162.789 94.6194 162.579 95.6894 162.509C94.7994 162.819 93.8094 163.139 93.2994 163.829C93.0994 164.119 92.8994 164.549 93.2494 164.829C93.6394 165.029 94.1694 164.969 94.5794 165.139C94.9894 165.389 94.8394 165.849 94.7794 166.199C94.4894 167.309 93.9094 168.369 93.2194 169.369C93.0694 169.599 92.9194 169.859 92.9694 170.129C93.2894 170.169 93.5094 169.929 93.7394 169.799C94.6694 169.149 95.6594 168.519 96.3594 167.699C96.6594 167.319 97.1294 166.979 97.1894 166.509C97.2594 166.129 96.5794 166.019 96.5294 165.679C96.8194 165.109 97.5494 164.769 98.2094 164.489C99.6994 163.899 101.879 164.039 102.809 165.239C102.059 165.039 101.359 164.679 100.549 164.619C100.139 164.599 99.6694 164.769 99.5894 165.119C99.4894 165.549 99.5494 165.989 99.4494 166.429C99.1594 167.979 97.9294 169.359 96.2794 170.229C95.7094 170.509 95.0094 170.649 94.5794 171.079C94.2794 171.379 94.0094 171.739 94.0394 172.129C94.3994 172.299 94.8294 172.239 95.2294 172.289C96.1194 172.369 97.0694 172.419 97.8894 172.099C98.6694 171.799 98.9794 171.059 99.7894 170.789C101.859 170.029 104.519 170.939 105.429 172.539C104.779 172.229 104.229 171.799 103.539 171.539C102.829 171.279 101.939 171.399 101.369 171.809C100.749 172.249 100.339 172.839 99.9794 173.429C99.8494 173.629 99.6894 173.879 99.3694 173.909C98.8194 173.889 98.3194 173.549 97.7594 173.689C96.9894 173.889 96.2994 174.259 95.5194 174.449C94.9894 174.569 94.4194 174.559 93.8794 174.449C92.9394 174.249 91.9894 174.029 91.0194 173.989C90.5794 173.989 90.0494 174.029 89.7694 174.349C89.3894 174.789 89.4394 175.339 89.3794 175.839C89.0794 174.599 88.6194 173.379 88.5394 172.109C88.4394 170.539 88.0594 168.959 88.3794 167.389C88.9094 168.019 88.9494 168.799 89.0694 169.529C89.1294 169.869 89.3194 170.289 89.8094 170.349C90.4794 170.349 90.8694 169.839 91.2094 169.459C91.7694 168.689 92.2694 167.819 92.1694 166.909C92.1794 166.499 91.5294 166.479 91.2894 166.189C90.8494 165.709 90.8394 165.049 91.0694 164.509C91.3094 163.919 91.9194 163.469 92.6094 163.199M128.609 161.119C128.639 160.789 129.099 160.699 129.449 160.719C130.099 160.719 130.739 160.779 131.389 160.699C130.919 161.199 130.259 161.649 129.469 161.809C128.959 161.899 128.499 161.519 128.609 161.119ZM129.079 153.109C129.559 152.919 130.049 152.739 130.469 152.469C130.299 153.009 129.949 153.579 129.299 153.859C128.789 153.969 128.629 153.239 129.079 153.109ZM105.939 144.829C106.579 147.289 107.469 149.569 110.359 150.479C113.049 151.329 116.929 150.729 119.879 150.459C122.319 150.379 124.589 149.919 126.399 151.189C127.309 151.819 127.689 152.579 128.129 153.449C128.539 154.299 128.959 155.159 129.259 156.039C129.529 156.809 129.369 157.779 128.929 158.479C128.239 159.569 127.799 160.489 127.659 161.699C127.529 162.799 127.309 163.889 127.109 164.979C126.899 166.029 126.619 167.279 126.069 168.269C125.539 169.229 124.579 169.949 123.949 170.859C122.879 172.349 122.289 173.959 121.739 175.609C121.299 176.889 121.129 178.209 120.759 179.499C120.479 180.609 119.809 181.679 118.589 182.329C116.799 183.279 114.549 183.519 112.639 184.259C110.869 184.949 109.679 186.079 108.279 187.139C107.179 187.979 106.239 188.939 104.639 189.169C101.699 189.619 100.949 187.279 95.6394 189.139C94.9994 189.369 94.1894 189.409 93.6194 189.049C92.3494 188.429 92.2094 186.699 90.7894 185.949C89.3794 185.259 87.6594 185.249 86.0794 184.949C85.3794 184.829 84.6894 184.409 84.4194 183.879C83.9694 182.959 83.9594 181.939 83.5594 181.009C82.5294 178.919 79.1494 178.239 78.1894 176.319C77.2094 174.309 78.5394 173.259 78.5394 171.639C78.4394 169.479 76.9794 168.399 74.1194 168.299C75.7094 165.999 76.2494 164.149 76.8194 161.679C77.1794 160.809 77.3994 159.849 78.3294 159.249C79.1394 158.739 80.4494 158.449 81.4294 158.209C82.4894 157.959 84.0394 157.929 85.0494 158.379C87.7494 159.859 87.1294 163.769 85.7094 165.369C83.7694 167.559 78.8994 167.129 79.7394 163.679C80.7394 164.529 81.7094 165.819 83.1094 164.289C83.2094 164.149 83.3194 163.929 83.2694 163.759C83.0694 163.109 82.6594 162.679 81.8794 162.369C81.4994 162.219 81.0394 162.119 80.6294 162.249C79.2394 162.679 78.2994 163.529 77.7494 164.599C76.6594 166.759 79.0194 168.479 81.7494 168.059C84.2894 167.559 85.4594 166.529 87.1094 165.169C87.0494 167.919 86.9794 169.909 87.3394 172.789C87.7694 174.889 88.1794 176.969 89.2694 178.929C90.1494 180.529 91.6194 182.019 93.6394 182.809C95.7594 183.659 98.0894 183.679 100.409 183.669C104.379 183.679 110.179 181.969 113.379 180.309C118.499 177.609 119.229 175.439 121.729 171.199C122.829 169.219 123.879 166.759 124.639 164.679C125.429 162.519 126.039 160.299 126.019 158.039C126.009 156.169 125.499 155.059 124.789 154.169C122.549 151.339 117.779 152.539 113.369 152.409C113.019 153.099 112.759 153.889 113.339 154.549C114.419 155.709 117.039 155.529 118.789 155.669C111.249 158.739 104.499 155.389 102.629 149.469C104.199 151.439 106.739 155.439 110.579 154.249C111.979 153.829 111.339 152.839 110.889 152.069C110.779 151.799 110.289 151.799 110.009 151.699C106.609 150.699 105.339 147.659 105.919 144.819M81.7394 143.559C82.3094 143.999 82.4894 144.599 83.0594 145.039C88.3994 149.099 93.1094 149.079 99.9094 149.309C93.8794 150.789 86.1894 149.879 81.8994 145.809C81.2994 145.259 80.8794 144.739 80.5294 144.069C80.2194 143.129 81.0494 143.019 81.7394 143.559ZM106.989 142.439C112.439 142.139 118.019 144.209 119.769 149.499C119.049 148.709 116.079 148.019 114.969 148.289C114.659 148.349 114.379 148.529 114.329 148.789C114.209 149.259 114.489 149.629 114.669 150.059C111.679 150.399 109.509 149.399 108.169 147.479C108.839 147.769 109.509 148.209 110.279 148.339C111.759 148.619 113.209 147.989 114.059 147.069C114.589 146.489 114.249 145.749 113.619 145.309C111.339 143.619 109.399 143.419 106.989 142.449M112.559 132.599C113.269 132.069 113.879 131.469 114.549 130.919C111.499 135.569 104.079 139.239 98.2394 140.279C95.2894 140.869 88.8494 141.639 86.1394 140.149C85.8394 139.989 85.5394 139.639 85.8194 139.369C86.2594 139.039 86.9794 139.109 87.5294 139.099C88.6794 139.209 89.8994 139.069 91.0494 139.069C93.9194 139.129 97.1794 138.659 99.9894 138.209C104.649 137.179 109.089 135.319 112.569 132.599M57.4094 115.729C58.2594 115.539 59.1794 115.679 59.9294 116.009C60.8694 116.429 61.4094 117.189 61.8794 117.919C62.0994 118.269 62.3394 118.689 62.1694 119.079C61.9094 119.139 61.6294 119.159 61.3694 119.229C61.1494 119.439 61.2194 119.749 61.2194 119.999C61.3894 121.349 61.9494 122.499 62.5594 123.759C62.6394 123.939 62.8094 124.079 62.9794 124.209C63.2094 122.779 62.8394 121.369 63.4294 119.979C63.5294 119.779 63.6494 119.519 63.9594 119.469C64.4594 119.469 64.8394 119.889 65.3394 119.809C65.7594 119.609 65.6994 119.149 65.6594 118.819C65.5294 117.969 64.6794 117.369 64.1294 116.679C65.3694 117.449 66.5394 118.389 67.0494 119.589C67.3594 120.289 67.2694 121.169 66.5394 121.699C66.2194 121.949 65.7394 121.879 65.3394 121.839C64.4394 122.709 64.5694 123.839 64.7894 124.869C64.8594 125.129 64.9194 125.579 65.3794 125.539C66.3194 125.339 66.9294 124.689 67.7194 124.289C65.8994 126.539 64.3494 127.789 63.1394 130.549C63.1594 129.969 63.2794 129.379 63.1194 128.809C63.0194 128.479 62.6694 128.259 62.3294 128.089C61.4294 127.649 60.3894 127.409 59.4694 126.989C58.5094 126.509 58.0094 125.679 57.4194 124.959C57.0394 124.499 56.3094 124.749 55.8494 124.379C55.6394 123.939 55.7494 123.459 55.6394 123.009C55.4994 122.299 55.4594 121.349 54.6794 120.889C53.8794 120.399 52.8194 120.429 51.8594 120.419V120.399C52.5694 120.139 53.3394 119.869 54.1394 119.989C55.4594 120.179 56.4194 120.809 57.1394 121.669C57.6394 122.239 57.5294 122.989 58.0094 123.569C58.3594 123.979 58.8994 124.259 59.3994 124.549C59.9494 124.849 60.4694 125.229 61.1494 125.339C61.3194 124.669 61.2094 123.929 60.6794 123.359C59.7694 122.379 59.4594 121.299 59.2594 120.129C59.1094 119.359 59.2594 118.569 59.6494 117.849C59.8394 117.479 60.1894 117.059 59.8794 116.669C59.3294 116.029 58.2594 115.969 57.4094 115.739M91.1494 102.739C93.5794 104.329 96.7794 106.289 99.4394 107.619C98.8494 108.089 98.1694 108.809 97.3794 108.789C95.6594 108.169 91.9394 104.239 91.1394 102.729M94.7194 97.3994H94.7694C98.3694 101.909 102.199 105.419 107.599 107.969C109.049 108.689 110.419 109.229 112.199 109.289C113.159 109.359 114.059 108.729 115.009 108.719C116.119 108.689 117.229 109.189 118.019 109.729C118.259 109.889 118.439 110.109 118.479 110.359C118.719 111.489 119.049 112.579 120.009 113.449C120.609 113.989 121.589 113.949 122.449 113.789C122.609 114.379 122.949 115.039 123.739 115.249C124.479 115.399 125.099 114.639 125.889 114.849C126.219 115.279 126.409 115.689 126.749 116.119C127.059 116.409 127.579 116.489 127.929 116.739C129.329 117.479 130.219 118.889 130.769 119.999C129.979 119.149 129.069 118.089 127.789 117.659C127.839 119.509 127.719 122.109 126.449 123.099C126.399 121.909 126.449 120.749 125.749 119.689C124.659 120.479 123.559 121.599 122.139 121.859C122.689 121.189 123.769 120.449 123.419 119.619C122.779 119.219 121.999 119.109 121.179 119.309C119.989 119.569 118.849 120.289 118.009 120.999C117.759 120.349 117.589 119.749 117.279 119.169C116.609 119.279 114.199 120.089 114.889 121.159C115.939 122.459 117.619 121.949 118.619 122.139C119.329 122.369 119.799 122.919 120.099 123.439C120.159 122.949 120.199 122.449 120.279 121.969C121.339 123.239 122.279 124.569 123.119 125.949C124.319 125.419 124.569 124.859 124.719 123.309C125.189 124.089 125.259 124.749 125.279 125.609C125.629 125.319 125.849 125.069 126.049 124.599C126.499 126.699 125.999 129.879 123.039 130.829C123.579 129.429 123.789 128.209 121.909 128.209C120.419 128.209 118.749 128.759 117.279 128.929C117.849 128.629 120.389 127.199 119.949 126.359C119.759 126.039 119.399 125.939 119.009 125.789C118.079 125.459 117.229 124.969 116.189 124.839C115.699 124.769 115.269 125.119 114.859 125.289C112.399 124.119 111.539 125.569 109.779 125.829C108.109 126.079 106.249 125.129 105.379 123.779C103.419 120.729 106.349 118.859 108.849 118.079C105.569 117.699 104.239 118.819 103.459 122.099C101.879 121.599 101.119 121.519 99.1594 121.159C88.2494 119.569 79.6094 122.789 74.5994 128.109C69.7694 133.239 66.7694 141.189 66.8194 147.649C66.6794 154.699 68.8394 158.839 72.4894 164.999C67.1994 160.659 64.8494 155.199 63.2794 151.559C62.6094 152.329 62.8294 153.289 62.6394 154.159C59.5794 149.989 63.8294 139.489 65.8494 134.779C64.2494 135.519 63.2794 136.849 62.1294 137.939C61.9394 131.979 67.1994 125.949 72.5794 121.079C70.9194 121.409 69.6694 121.949 68.1794 122.699C73.3294 117.249 82.7594 114.119 91.2694 113.799C89.2594 113.129 86.8694 112.989 84.7594 112.629C91.4094 111.249 95.9694 111.199 100.449 108.219C102.539 109.579 104.979 110.959 106.169 110.589C102.579 108.029 95.9994 102.039 94.7294 97.3594M114.359 111.569C114.709 112.129 115.229 112.599 115.679 113.099C116.199 113.649 117.089 114.119 118.039 113.849C117.899 113.349 117.719 112.859 117.419 112.409C117.299 112.219 117.029 112.119 116.769 112.089C115.949 111.949 115.169 111.719 114.359 111.569Z" fill="white"/>
<path fill-rule="evenodd" clip-rule="evenodd" d="M43.5501 107.329C60.3401 96.8395 79.5801 88.4995 96.6801 85.6895C113.78 88.4995 133.02 96.8395 149.81 107.329C149.81 107.719 149.81 108.109 149.81 108.499C133.21 98.0595 114.29 89.7194 97.4501 86.7694C80.3501 89.3994 61.1101 97.5294 44.3201 107.839C44.1001 147.599 54.9201 179.239 72.5601 198.339C54.4701 179.529 43.3301 147.659 43.5501 107.329Z" fill="black"/>
</g>
</g>
</svg>
